<svg xmlns:rdf="http://www.w3.org/1999/02/22-rdf-syntax-ns#" xmlns="http://www.w3.org/2000/svg" height="240pt" width="208pt" version="1.1" xmlns:cc="http://creativecommons.org/ns#" xmlns:dc="http://purl.org/dc/elements/1.1/" viewBox="0 0 208 240">
 <g>
  <path d="m5.1992 5.1992v129.86c0 55.08 44.235 99.74 98.801 99.74 54.57 0 98.8-44.65 98.8-99.74v-129.86z" stroke="rgb(0%, 0%, 0%)" stroke-width="2.4" fill="rgb(78%, 19%, 19%)"/>
  <path fill="rgb(65%, 39%, 33%)" d="m40.266 64.125l5.918-0.043 0.023 3.438-5.914 0.046z"/>
  <path fill="rgb(96%, 96%, 96%)" d="m49.266 62.734l5.484 9.684c33.754-25.309 48.89-36.367 76.62-45.641 1.61-0.004 7.63-3.718 11.78-1.875 18.64-6.488 34.49-9.562 50.38-9.273-22.88-14.754-52.02-4.629-78.49 7.445-28.501 13.02-33.88 17.043-65.778 39.649l-0.004 0.004z"/>
  <path fill="rgb(96%, 96%, 96%)" d="m184.85 13.605c-4.4-0.839-8.48-0.746-12.93-0.601-12.44 0.965-24.73 4.109-36.59 7.836-3.53 1.269-7.26 2.152-10.61 3.871-2.42 1.945-5.58 2.644-8.32 4.066-17.798 8.043-10.4 5.711-27.33 15.457-8.531 5.012-17.019 10.164-25.058 15.942-1.399 1.344-3.637 2.859-4.489 4.586-0.093 0.605-1.515 4.031-1.085 4.101 0.441 0.082 2.769-1.215 3.078-1.593 11.769-7.95 24.746-17.532 37.101-24.559 11.683-6.649-1.34-1.621 11.163-7.211 8.99-4 17.97-8.082 27.51-10.609 2.14-0.602 4.36-0.106 6.51 0.031 12.02-4.004 24.27-7.52 36.96-8.285 2.95-0.301 5.97-0.469 8.92-0.688 0.51-0.152 4.82 0.281 4.48-0.152-3.04-0.875-6.48-1.481-9.32-2.195z"/>
  <path fill="rgb(0%, 0%, 0%)" d="m195.57 16.195c-22.52-15.718-54.28-4.41-73.89 3.032-25.653 9.722-50.633 27.679-70.164 41.843l-0.25 0.141 0.14 0.281 5.071 9.137 0.164 0.312 0.671 0.446c33.325-24.199 53.718-39.274 80.758-46.289 2.04-0.524 4.16 0.316 6.05 0.187 17.97-6.984 35.79-9.133 51.44-9.09l0.01-0.004zm-2.24-0.597c-21.79-0.496-35.9 4.117-49.77 8.687-2.23-0.332-4.13-0.762-6.45-0.137-28.04 7.602-55.665 28.215-79.958 46.188l-4.797-9.195c18.762-12.934 44.614-31.594 70.055-41.215 25.16-9.524 50.99-16.422 70.91-4.317l0.02-0.007z"/>
  <path d="m61.964 42.987c1.2 4.142-10.573 14.996-18.566 23.713-5.478-2.531-11.338 2.032-5.019 8.253 4.176 4.127 9.371 0.968 12.044-1.583 8.353-7.965 17.613-22.303 22.604-21.248-2.305-0.516-5.964-7.132-11.063-9.135z" transform="matrix(1 .26605 -.26605 1 0 0)" stroke="rgb(0%, 0%, 0%)" stroke-width=".69092" fill="rgb(76%, 78%, 78%)"/>
  <path fill-opacity=".29412" fill="rgb(0%, 0%, 0%)" d="m51.199 70.594l-3.82-6.375c-0.074 0.066-0.164 0.136-0.238 0.195l2.691 6.918zm-2.273 1.597l-3.762-6.289c-0.086 0.063-0.184 0.121-0.266 0.184l2.661 6.844 1.367-0.735zm-2.262 1.598l-3.769-6.289c-0.094 0.062-0.172 0.117-0.266 0.184l2.668 6.851zm-2.266 1.602l-3.82-6.379c-0.086 0.054-0.168 0.109-0.254 0.164l2.707 6.949zm-2.269 1.589l-3.887-6.476c-0.074 0.051-0.156 0.101-0.23 0.144l2.75 7.079zm-2.266 1.602l-3.976-6.625c-0.067 0.043-0.137 0.09-0.207 0.133l2.816 7.234zm-2.269 1.602l-4.059-6.782c-0.066 0.043-0.125 0.078-0.183 0.106l2.878 7.418 1.368-0.742zm-2.262 1.589l-4.16-6.929c-0.051 0.027-0.106 0.062-0.16 0.09l2.953 7.586zm-2.266 1.602l-4.246-7.078c-0.047 0.027-0.09 0.047-0.132 0.078l3.011 7.746 1.383-0.719zm-2.261 1.602l-4.332-7.215c-0.039 0.023-0.078 0.043-0.114 0.062l3.079 7.887 1.374-0.711z"/>
  <path stroke-linejoin="round" d="m70.906 52.416l-3.205-1.901-11.698 13.761c-3.503 4.115-6.71 8.387-11.14 9.839-4.43 1.436-9.358-4.503-7.077-7.586-2.546 1.236-3.398 4.494 0.579 8.416 4.176 4.127 9.371 0.968 12.047-1.584 7.286-6.958 15.262-18.748 20.495-20.941zm0 0" transform="matrix(1 .26605 -.26605 1 0 0)" stroke="rgb(0%, 0%, 0%)" stroke-linecap="round" stroke-width=".26364" fill="rgb(96%, 96%, 96%)"/>
  <path fill="rgb(76%, 78%, 78%)" d="m55.719 65.184l-0.309-0.954c17.785-11.714 34.613-26.796 70.59-40.589 21.7-8.313 46.76-14.707 64.63-8.633-17.21-5.0588-40.01 0.265-61.64 8.312-1.91 0.715-4.23 1.719-4.83 2.883-32.648 13.883-45.152 23.297-67.621 40.129z"/>
  <path fill="rgb(0%, 0%, 0%)" d="m149.93 17.934c-39.45 9.203-67.336 28.933-90.871 46.148l0.371 0.91c23.238-17.887 54.98-38.39 90.66-46.691 11.85-2.758 24.41-4.942 36.81-3.465-12.38-1.731-26.28 0.855-36.97 3.098z"/>
  <path fill="rgb(0%, 0%, 0%)" d="m130.5 20.918c-27.11 9.523-49.992 25.148-72.418 41.25l0.402 0.727c20.328-15.278 45.596-31.918 72.506-41.493 17.85-6.351 36.74-10.757 54.56-7.757-13.03-1.954-29.71-1.625-55.05 7.273z"/>
  <path fill="rgb(76%, 78%, 78%)" d="m31.305 86.363c-3.442 1.692-8.84 3.063-11.707-1.82-2.243-3.805-1.754-6.344-0.129-7.641-2.453 0.879-3.723 3.657-1.028 8.243 3.082 5.238 9.106 3.312 12.461 1.464 0.129-0.07 0.274-0.164 0.41-0.242z"/>
  <path fill="rgb(0%, 0%, 0%)" d="m54.379 68.645l-0.113-0.11-15.36 10.653c-2.277 1.578-4.492 3.21-6.726 4.492 2.629-1.352 5.211-3.25 7.871-5.098l14.328-9.941z"/>
  <path fill="rgb(96%, 96%, 96%)" d="m63.703 60.211c-4.273 0.891-7.914 1.477-9.832 0.055l-2.516-3.75c-5.035-7.465-0.91-14.047-7.832-11.914-9.195 2.836 10.536 15.554 5.782 24.847 10.441 0.141 12.468 23.539 19.273 16.731 5.121-5.121-2.625-4.559-6.879-12.492l-2.137-3.977c-0.355-2.359 1.364-6.145 4.141-9.5z"/>
  <path fill="rgb(76%, 78%, 78%)" d="m43.793 44.523c-0.09 0.024-0.172 0.039-0.273 0.071-9.196 2.828 10.542 15.551 5.785 24.851 10.441 0.137 12.465 23.535 19.269 16.723 0.121-0.121 0.207-0.223 0.317-0.34-6.418 0.934-8.032-17.504-17.649-17.637 4.34-8.472-10.726-18.199-7.445-23.668z"/>
  <path stroke-linejoin="round" d="m74.398 40.448c-3.762 1.892-6.972 3.305-9.113 2.452l-3.288-2.871c-6.55-5.726-4.333-12.898-10.271-9.185-7.883 4.933 13.707 11.908 11.572 21.768 9.786-2.466 17.496 18.881 22.162 10.842 3.511-6.066-3.587-3.604-9.529-9.96l-2.983-3.183c-0.919-2.119-0.308-6.032 1.45-9.863zm0 0" transform="matrix(1 .26605 -.26605 1 0 0)" stroke="rgb(0%, 0%, 0%)" stroke-linecap="round" stroke-width=".63429" fill="none"/>
  <path d="m44.282 71.445c-0.473 0.513-1.281 0.532-1.784 0.049-0.499-0.465-0.534-1.256-0.066-1.76 0.473-0.512 1.27-0.541 1.786-0.057 0.493 0.474 0.533 1.257 0.064 1.768z" transform="matrix(1 .26605 -.26605 1 0 0)" stroke="rgb(0%, 0%, 0%)" stroke-width=".42708" fill="rgb(96%, 96%, 96%)"/>
  <path fill="rgb(99%, 59%, 38%)" d="m45.055 55.652l-0.239-0.195-3.195-1.187c-0.109-0.051-0.23-0.09-0.324-0.11-0.301-0.07-0.586-0.125-0.871-0.16l0.012 0.035c-0.282-0.035-0.543-0.07-0.805-0.07-0.129 0.004-0.235 0.008-0.36 0.019-0.246 0.024-0.648 0.188-0.875 0.243-0.57 0.136-0.828 0.441-1.277 0.789-0.152 0.121-0.453 0.355-0.586 0.507-0.125 0.153-0.219 0.293-0.324 0.469-0.047 0.09-0.109 0.199-0.156 0.297l-0.035 0.012c-0.125 0.281-0.208 0.59-0.278 0.926-0.004 0.011 0.012 0.023 0.012 0.039-0.004 0.031-0.02 0.062-0.024 0.101l-4.363 0.153-0.062 0.628-0.946-0.253c-0.562 1.261-1.406 2.519-1.074 3.875l-0.484 1.781-1.473-0.008-0.644 0.738c-0.102 0.063-0.204 0.149-0.289 0.227-0.172 0.156-0.317 0.308-0.422 0.535-0.063 0.125-0.137 0.312-0.176 0.457-0.082 0.289-0.086 0.594-0.098 0.969-0.004 0.183-0.019 0.367-0.008 0.57 0.032 0.625 0.145 1.336 0.34 2.152-0.465 0.051 0.449 0.254 0.481 0.356l-0.133 1.265c-0.176-0.21-0.434-0.589-0.52-0.613-0.207-0.054-0.441-0.074-0.621-0.094-0.093-0.003-0.136-0.023-0.218-0.023-0.172 0.004-0.36 0.027-0.497 0.063-0.211 0.058-0.382 0.167-0.535 0.304-0.058 0.055-0.742 0.742-0.789 0.801-0.101 0.152-0.152 0.336-0.215 0.535-0.172 0.492-0.101 1.285-0.054 2.117 0.066 0.254 0.136 0.469 0.207 0.719l0.027 0.004c0.074 0.238 0.172 0.461 0.254 0.691l0.004 0.051c0.164 0.457 0.297 0.867 0.496 1.27 0 0 0.047 0.023 0.047 0.035 0.297 0.617 0.992 1.441 1.351 1.973l0.028 0.007c0.117 0.176 0.246 0.344 0.371 0.512 0.051 0.055 0.078 0.106 0.125 0.156l-0.016 0.309 0.504 0.031c0.535 1.602 3.379 3.442 4.777 1.86l0.09-0.008c-0.066-0.098 0.121-0.121 0.051-0.211 0.008 0.019 0.035 0.008 0.047 0.019 0.23-0.258 0.687-0.976 0.766-1.304 0.097-0.461 0.043-1.118-0.149-1.739l0.074 0.02 0.106-0.758 1.562 1.008c1.055 0.558 3.078 0.836 3.703 0.351 0.137-0.117 0.262-0.242 0.36-0.371 0.195-0.257 0.316-0.578 0.371-0.933l0.066-0.524c-0.007-0.425 0.364-0.398 0.2-0.937l0.293-0.742 1.367-0.453c0.25-0.11 0.426-0.364 0.558-0.7 0.172-0.441 0.215-1.058 0.164-1.883-0.168-0.046-0.269-0.132-0.422-0.187l0.782 0.172 1.027-0.309 0.832-0.933c0.055-0.098 0.145-0.2 0.188-0.309 0.211-0.566 0.629-1.43 0.523-2.367-0.008-0.067-0.023-0.149-0.031-0.219l-0.426-2.476 1.25 0.152c0.863 0.598 1.75 1.039 2.527 1.277 0.86 0.262 1.621 0.219 2.25-0.14-0.25 2.175-2.125-1.141-1.535 2.625 0.113 0.703 0.156 1.375 0.16 1.992l0.012 0.035-0.824 2.937-0.008 0.02c-0.262 0.168-0.555 0.422-0.937 0.797-0.555 0.555-1.09 1.094-1.528 1.672-0.418 0.539-1.023 0.773-1.328 1.332l-0.687 1.328c-1.317 1.141-8.161 4.691-8.93 6.133 1.125 5.027 2.992 7.16 7.137 10.351 0.695 0.465 5.707 5.452 5.964 5.842 2.465 2.29 4.012 4.37 8.297 1.21 3.922-1.72 8.059-9.517 5.461-17.13 0.004-0.008-1.449-1.008-1.418-2.355 1.68-4.352-0.922-9.852-1.289-13.27-0.019-0.273-0.019-0.508-0.066-0.762l-0.02-0.011c-0.097-0.508-0.234-0.961-0.425-1.375-0.094-0.211-0.184-0.403-0.301-0.594-0.074-0.109-0.18-0.231-0.258-0.332-0.082-0.102-0.152-0.176-0.242-0.273-0.168-0.18-0.375-0.348-0.578-0.5-0.008-0.008-0.004-0.032-0.008-0.036-0.285-0.207-0.61-0.425-0.953-0.574l-0.035 0.008-0.051-0.059c-0.309-0.566-0.551-1.093-0.754-1.574-0.211-0.465-0.352-0.879-0.477-1.258-0.101-0.195-0.222-0.383-0.351-0.558-0.137-0.18-0.028-0.188-0.203-0.336l-1.621-1.016-0.551-0.109-0.164-0.254-0.059 0.012-0.613-0.215-1.985-0.164c-0.996-1.895-1.878-3.289-3.011-4.903z"/>
  <path fill-opacity=".2941" fill="rgb(0%, 0%, 0%)" d="m39.199 54.047l-2.191 1.16-1.477 2.742 0.614 4.082 0.359 3.34 0.516 2.645 0.828 2.718 1.101 1.235 0.735-0.199 0.996 0.542 0.05 1.309c-0.687 0.941-1.441-0.324-2.371-0.738-2.39-1.047-2.113-1.512-2.859-2.203-1.344-1.559-2.109-3.016-2.43-4.5-2.117-3.328-2.504-6.489-1.382-8.422l-1.672 0.82-0.942 2.555 0.246 3.281 1.754 4.121 4.016 4.453 1.519 1.543 1.809 1.047-0.203 1.399-1.676-0.633-2.434-0.328c-1.691-0.852-2.257-2.164-3.179-3.328-4.063-3.411-4.215-5.969-4.488-8.024l-0.84 1.91 0.242 2.504 1.445 3.035 2.488 3.922 1.997 1.524 0.402 1.078-0.035 1.687-0.586 0.91-0.539-1.086-2.02-1.414c-3.687-2.254-5.336-5.074-5.262-7.703l-0.757 1.692 0.195 2.648 1.801 3.067c-0.145 0.015-0.262-0.336-0.371-0.461-0.227-0.227-0.821-0.879-1.801-1.161 0.07 2.606 2.047 4.727 4.668 6.219 1.668 0.918 2.898 0.77 4.223-0.097 1.609-0.836 1.39-2.051 1.871-3.126 1.316 0.051 4.511 2.629 5.195-2.144 1.035-0.906 1.641-0.91 2.211-2.984l1.726-1.039c0.848 0.96 2.067 1.562 3.481 2l-2.348 2.636-1.418 4.309 0.203 3.988c1.356-0.301 1.75-0.363 3.282 0.043-0.25-1.348 0.73-2.051 1.464-2.891-2.113-3.519 0.625-6.164 1.903-9.07l0.242-0.687-0.664-3.934 0.098-2.703c-1.204-0.348-2.223-0.922-3.207-1.539-2.586-2.031-3.758-4.051-5.18-6.067l-0.918-1.023-0.293 1.527c1.016 2.375 3.051 4.067 4.961 5.868l-0.992 0.789 0.308 2.996-0.488 1.168 0.012-0.137c-1.16 0.414-1.551-0.27-1.985-0.414l-0.879-2.453c-0.234-0.867-0.601-1.762-1.179-2.699-1.106-4.364-2.102-9.082 0.105-11.305zm2.309 26.308l-7.293 4.692-0.594 0.484 0.113 1.789 0.727 2.75 2.656 3.551 3.211 2.586 1.567 0.84 1.339 1.617 2.34 2.136 0.809 0.91 0.48 0.2 3.867-1.11 2.184-1.245c-4.012-1.75-8.773-5.606-8.508-7.821-1.601-0.468-3.461 0.704-4.636-2.507-1.063-3.387-0.055-6.184 1.738-8.872z"/>
  <path fill="rgb(0%, 0%, 0%)" d="m44.992 55.07c-0.375-0.144-0.797-0.297-1.265-0.465-1.707-0.699-3.368-1.019-5.071-0.621-1.914 0.45-2.875 1.75-3.437 3.352-1.828-0.406-4.078-0.297-5.25 0.738-1.473 1.297-1.289 2.981-1.293 4.86-3.16 0.367-4.008 3.789-3.039 6.773-1.34-0.004-2.403 0.664-2.809 1.797-0.742 2.058 0.004 4.184 1.016 5.879 0.535 0.91 1.304 1.683 2.051 2.543 1.082 2.398 4.91 3.136 5.562 1.625 1.051-0.508 1.082-2.309 0.816-3.539 0.165 0.136 0.344 0.09 0.516 0.23 1.293 1.098 3.504 1.531 4.703 0.93 0.672-0.336 0.848-1.086 0.785-1.86 0.293-0.417 0.434-1.136 0.278-1.656 0.101 0.02 0.222 0.114 0.273 0.032l0.11-0.208c1.621-0.136 2.195-1.402 2.074-2.832 0.39-0.011 0.804-0.078 1.109-0.187 2.102-1.145 2.387-4.266 1.293-6.598 0.961 0.68 2.555 1.688 3.543 2-0.062 0.477-0.109 0.903 0 1.625 0.102 0.645-0.215 1.633-0.211 2.149-0.113 0.754 0.277 1.699 0.477 2.39-1.231 0.754-2.414 1.731-3.25 2.75-0.614 0.758-0.817 1.782-1.176 2.555-1.754 1.086-3.637 2.25-5.109 3.266-0.958 0.668-1.895 1.246-2.704 1.765-0.808 0.508-0.519 0.637-0.722 0.727-0.457 0.191-1.379 0.348-1.301 0.836 0.281 4.461 3.66 8.765 8.641 11.363 1.586 2.109 2.886 2.951 4.031 4.361l1.597 0.05c-2.144-1.32-3.054-2.93-4.96-5.032-4.332-3.016-7.672-5.012-8.192-10.953 2.652-1.871 6.676-4.485 8.574-5.883-0.937 2.391-0.8 5.012 0.227 7.25-0.688-2.633-0.207-5.828 0.91-7.93 0.309-0.57 0.672-1.117 1.094-1.668 0.82-1.062 1.691-1.925 2.703-2.66 0.238-0.156 0.543-0.156 0.777-0.211 0.707 0.149 1.325-0.062 1.961-0.258-0.73 0.067-1.445-0.285-1.976-0.554-0.45-0.606-0.461-1.418-0.489-2.078 0-0.618-0.058-1.27-0.171-1.973-0.59-3.762 1.273-0.484 1.519-2.66-0.621 0.363-1.375 0.379-2.234 0.117-1.153-0.355-2.535-1.211-3.77-2.238-0.531-0.422-0.926-0.875-1.387-1.352-0.757-0.676-1.371-1.555-1.851-2.41-0.113-0.23-0.238-0.449-0.289-0.668-0.149-0.555-0.028-1.012 0.086-1.519 1.066 1.632 2.672 2.253 4.527 2.222 0.219-0.008 0.328-0.219 0.5-0.289 0.512-0.391 0.621-0.832 0.801-1.383 0.601 0.352 1.199 0.731 1.805 1.047 0.242 0.121 0.492 0.18 0.742 0.301 1.25 0.445 2.972 0.551 4.051 1.191 0.152 0.094 0.308 0.223 0.433 0.34 0.348 0.313 0.59 0.785 0.758 1.172 0.426 1.008 0.754 1.828 1.191 2.734 1.125 0.454 1.895 1.235 2.422 2.266 0.207 0.402 0.387 1.152 0.473 1.664 0.047 0.277-0.102 0.59-0.078 0.824 0.363 3.418 2.511 8.387 1.246 12.84-0.164 0.578 0.109 0.981 0.531 1.383l0.516-0.492c-0.254-0.266-0.395-0.574-0.289-0.899 1.601-4.828-0.809-9.918-1.082-12.871-0.086-0.914-0.309-1.828-0.59-2.566-0.469-1.231-1.469-2.008-2.567-2.602-0.238-0.457-0.472-0.937-0.629-1.308-0.246-0.442-0.339-0.949-0.488-1.356-0.234-0.535-0.633-1.035-1.074-1.336-0.918-0.664-2.895-1.175-4.504-1.484-0.547-0.242-1.09-0.535-1.547-0.773-0.59-0.329-0.902-0.422-1.437-0.797-0.961-0.887-2.18-1.836-3.45-2.02-1.211-0.172-2.687 0.324-2.711 1.27-0.078 0.125-0.167 0.363-0.226 0.488-0.164 0.391-0.18 1.008-0.152 1.426 0.136 1.519 1.183 2.715 2.101 3.726 0.512 0.461 0.926 0.879 1.41 1.364 0.653 1.316 0.774 2.71 0.879 3.73 0.219 2.285-1.679 4.184-3.289 2.844 0.633-0.156 0.863-0.649 1.313-1.028 0-2.695-2.512-5.089-4.164-3.046-0.176-0.653-0.286-1.118-0.309-1.758 0.07-2.68-1.137-5.317-0.91-7.887 0.23-1.812 1.152-2.875 2.762-3.379 1.585-0.504 3.519 0.086 4.976 0.629 0.383 0.148 0.918 0.355 1.485 0.598zm-1.887 2.637c0.196 0.102 0.395 0.223 0.575 0.352 0.535 0.386 0.996 0.855 1.468 1.195-0.089 0.723-0.332 1.219-0.73 1.418-1.836 0.133-3.574-0.59-4.543-2.258 0.391-0.918 1.453-1.102 2.41-0.957l0.043 0.023c0.274 0.043 0.535 0.098 0.777 0.227zm-8.05 0.621c0.097 2.668 1.027 4.992 1.234 7.531-0.012 0.825 0.484 2.598 0.484 2.598 0.168 1.16 1.165 3.469 2.141 3.594 0.125 0.019 0.313-0.035 0.426-0.094 0.402 0.238 0.664 0.391 1.066 0.52 0.114 1.355-0.027 2.496-1.371 2.707 0.164-0.481 0.43-1.024 0.27-1.426-0.532-1.324-2.688-1.719-4.231-1.231-1.98-1.945-4.172-3.965-5.023-6.586-0.571-1.546-0.801-3.351-0.653-4.796 0.02-1.063 0.411-1.883 1.211-2.508 1.403-1.106 3.094-0.754 4.446-0.309zm4.398 9.371c0.766 0.504 1.32 1.699 1.461 2.836-0.551 0.594-1.242 1.098-1.949 1.195-0.949-0.718-1.508-2.097-1.633-3.449 0.609-0.769 1.234-0.929 1.793-0.726 0.113 0.043 0.219 0.07 0.328 0.144zm-10.594-3.937l0.024 0.008c0.074 0.519 0.301 1.449 0.476 1.988 0.739 3.035 3.09 5.367 5.453 7.394 0.333 0.946 2.458 2.133 3.215 2.356 0.321 0.828 0.137 1.203-0.074 1.375-2.051-1.578-5.191-1.422-5.285 0.75-5.449-2.797-9.641-13.875-3.809-13.871zm9.121 9.375c0.102 0.047 0.211 0.086 0.293 0.148 0.235 0.176 0.383 0.414 0.465 0.672 0.106 0.32-0.015 0.855-0.246 1.27-1.289-0.383-2.551-1.133-3.195-2.172 0.891-0.293 1.961-0.266 2.683 0.082zm-12.05-2.637c0.84 1.91 2.578 4.648 4.004 5.98 0.777 0.622 1.289 0.903 1.625 1.684 0.41 1.09 0.375 2.098-0.121 2.977-0.188-1.489-1.793-2.286-2.934-2.735-0.973-0.371-1.93-0.215-2.461 0.668-1.996-2.246-3.504-4.523-2.598-7.25 0.422-1.265 1.395-1.625 2.485-1.324zm11.054 6.355c0.243 0.106 0.481 0.231 0.711 0.364 0.11 0.527 0.172 1.101-0.054 1.383-0.836 1.082-3.68 0.343-4.621-0.7 0.168-1.984 2.242-1.836 3.964-1.047zm-7.8 2.364c0.293 0.16 0.628 0.32 0.89 0.527 0.785 0.59 1.293 1.305 0.875 1.723-1.597 1.57-4.535-0.899-4.523-1.907 0.39-0.621 1.058-0.89 1.644-0.765 0.325 0.055 0.723 0.226 1.118 0.422z"/>
  <path fill="rgb(96%, 96%, 96%)" d="m154.35 73.852c-8.01 1.39-12.3 15.293-22.28 19.086 0.59 0.671 1.18 1.343 1.75 2.023-2.05 1.812-4.12 3.582-6.16 5.329-0.24 0.2-0.48 0.41-0.71 0.6 0.21-0.28 0.46-0.5 0.71-0.6-0.97-0.45-1.83-0.595-2.53-0.313-1.36 0.523-1.77 1.923-1.57 3.833-1.38 1.19-2.75 2.36-4.08 3.54-1.97-1.15-3.84-1.56-5.36-0.7-3.06 1.3-6.41 7.83-9.05 13.3-0.16-0.5-0.18-0.71-0.39-0.7-0.21 0-0.13 0.21-0.3 0.74l-0.1-0.01c-0.48-3.65-2.2-7.76-3.77-10.43-0.33-0.78-0.807-1.44-1.455-1.98-0.098-0.08-0.18-0.16-0.274-0.23-0.051-0.04-0.105-0.07-0.16-0.11-0.141-0.1-0.281-0.19-0.418-0.24-1.988-1.04-4.476 0.06-6.98 2.13-11.696-8.28-25.539-14.819-30.282-22.425-0.25-1.039-0.793-1.785-1.734-2.047 2.355 5.895-4.227 15.472-10.75 17.052l-1.531 0.2c-0.906 0.04-0.688 0.18-1.543-0.17 0.945 0.59 0.754 0.69 1.687 0.88 1.551 1.3 5.586 4.67 7.93 7.13 5.18 5.45 9.199 11.91 14.207 17.53 1.813 2.03 4.441 4.6 6.953 6.96-1.16 4.47-1.285 8.41 0.766 9.75 3.422 2.66 10.773 3.73 14.812 3.81 2.235 3.03 7.078 4.69 12.522 7.03 0.2 0.82 0.45 1.31 0.72 1.31 0.22 0 0.43-0.35 0.6-0.92 4.88-1.36 8.97-4.54 13.28-7.21h0.02c4.05-0.23 14.82-2.22 17.82-5.14 1.26-0.91 1.62-2.79 1.37-5.17 2.18-1.1 4.31-2.29 6.44-3.57 1.39 0.71 2.62 0.93 3.51 0.42 0.86-0.47 1.23-1.32 0.86-3.13 3.37-2.17 6.69-4.48 10.02-6.8-0.14 1.05 0.1 2.13 0.7 3.04 0 0.01 0.01 0.03 0.02 0.06 0.06 0.07 0.13 0.17 0.2 0.24 0.08 0.11 0.18 0.21 0.27 0.32 0.11 0.11 0.21 0.22 0.33 0.31 0.01 0 0 0.02 0.01 0.02 1.86 1.58 4.64 1.35 6.22-0.51 1.57-1.86 1.34-4.63-0.53-6.2-0.38-0.34-0.84-0.6-1.29-0.77 0.38-1.73 2.16 0.11 6.96-2.3-9.6-14.7-9.43-29.523-12.54-44.3-1.79-0.747-3.41-0.922-4.89-0.665z"/>
  <path fill="rgb(76%, 78%, 78%)" d="m96.441 108.97l-1.464 0.22c-0.629 0.47-1.102 1.09-1.332 1.65l2.14 1.75 2.563 1.98 0.484-1.68-0.41-2.17-0.805-1.33zm19.259-0.18l-1.08 0.76-0.6 2.01s0.02 0.51 0.12 0.44c0.09-0.07 1.71-1.6 1.71-1.6l1.26-1.42z"/>
  <path fill="rgb(76%, 78%, 78%)" d="m54.285 98.543l-0.582 0.176c-1.629 1.421-3.433 2.501-5.242 2.941l-1.531 0.2c-0.91 0.04-0.684 0.17-1.539-0.18 0.945 0.58 0.754 0.7 1.687 0.89 1.551 1.29 5.578 4.66 7.922 7.13 5.18 5.44 9.199 11.91 14.203 17.52 1.82 2.04 4.453 4.6 6.969 6.96-1.164 4.47-1.297 8.41 0.754 9.76 3.426 2.65 10.777 3.72 14.816 3.8 2.235 3.03 7.074 4.71 12.518 7.04 0.21 0.81 0.45 1.3 0.72 1.3 0.22-0.01 0.44-0.34 0.61-0.9 4.87-1.36 8.96-4.55 13.27-7.22h0.02c4.05-0.23 14.84-2.24 17.82-5.16 1.26-0.9 1.61-2.78 1.36-5.16 2.18-1.1 4.32-2.29 6.46-3.57 1.37 0.7 2.62 0.93 3.52 0.43 0.85-0.49 1.2-1.33 0.83-3.14 3.37-2.16 6.71-4.49 10.05-6.8-0.15 1.05 0.08 2.12 0.68 3.03 0.01 0.02 0.01 0.04 0.03 0.05 0.06 0.09 0.13 0.17 0.19 0.25 0.08 0.12 0.17 0.23 0.27 0.34s0.21 0.22 0.33 0.32c0 0-0.01 0.02 0 0.02 1.85 1.57 4.65 1.33 6.22-0.53s1.35-4.64-0.51-6.21c-0.39-0.33-0.85-0.58-1.31-0.75 0.39-1.73 2.16 0.11 6.97-2.3-0.5-0.76 0.08 0.11-0.37-0.66l-0.25-0.09c-0.78 1.03-11.33 2.77-13.51 0.8l-0.86-1.14c-1 0.09-2.21 0.2-3.85 0.36l-4.36-2.53c-1.77-0.05-3.85-1.29-5.4 0.28 0.14 0.02 0.82 0.62 0.96 0.59 2.58-0.53 5.65 2.63 5.35 2.94-3.11 3.16-6.35 4.18-10.81 5.76 0.43 2.09-0.52 2.74-2.8 2.02-5.15 4.42-8.13 5.35-11.51 6.94 0.55 2.41-1.07 2.15-3.1 1.38-2.84 4.93-6.82 5.68-8.48 6.03-1.84 1.72-3.3 3.97-6.63 3.65-0.83 0.39-1.62 1.42-2.58-0.27-2.61 0.14-4.477-1.13-6.133-2.8-3.836 0.5-6.832-0.5-8.836-3.24-2.48-0.75-0.555-2.77 0.625-4.58-9.508 2.32-24.894-16.74-33.871-29.93-1.098-1.13-0.723-2.54-0.516-3.91-2.043 0.48-1.531-1.099-0.574-1.837z"/>
  <path fill="rgb(0%, 0%, 0%)" d="m92.195 147.65l-0.914 0.18 0.121 0.18c2.375 3.22 7.313 4.97 12.778 7.32 0.07 0.02 0.13-0.07 0.18-0.04l-0.1-0.95c-0.07-0.03-0.15 0.29-0.23 0.26-5.194-2.22-9.721-4.24-11.831-6.95zm26.275-0.11c-4.22 2.64-8.04 5.99-12.67 7.35-0.04 0.01-0.14-0.15-0.19-0.14l0.05 0.66c5.05-1.41 9.23-4.55 13.59-7.23z"/>
  <path fill="rgb(0%, 0%, 0%)" d="m100.28 108.42l0.35 2.11c0.23 0.45 0.45 0.96 0.68 1.47 1.07 2.44 2.46 5.88 2.81 8.57 0.09 0.06 0.09-0.29 0.03-0.23l0.04-0.07 0.22-0.15-0.02-0.44c-0.36-2.79-1.25-5.49-2.35-8.02-0.55-1.25-1.15-2.36-1.76-3.24zm3.22 16.06c-1.54 8.05-6.641 20.78-12.113 22.9-3.336 0.46-9.285-0.99-12.844-2.89l-1.844-0.19c3.606 2.81 11.473 4.38 15.051 3.88l0.188 0.02 0.128-0.16c5.989-3.24 10.424-14.54 11.574-22.54z"/>
  <path fill="rgb(0%, 0%, 0%)" d="m95.641 106.25c-0.575 0.11-1.153 0.32-1.735 0.59-0.996 0.47-2.011 1.15-3.019 1.99l0.609 0.51c0.938-0.76 1.856-1.38 2.734-1.8 0.711-0.33 1.383-0.52 2.012-0.57 0.625-0.04 1.211 0.07 1.758 0.35 1.504 0.79 2.3 2.14 2.61 3.92 0.3 1.78 0.06 3.98-0.52 6.31-1.141 4.68-3.656 9.9-5.887 13.58-1.926 3.18-5.082 7.14-8.336 9.86-1.633 1.37-3.273 2.41-4.781 2.91s-2.848 0.46-3.965-0.27c-0.879-0.58-1.32-1.76-1.391-3.41-0.062-1.52 0.188-3.4 0.68-5.41 0.047-0.19-0.359 0.27-0.222-0.27l-0.407-0.48c-0.59 2.27-0.929 4.42-0.851 6.2s0.59 3.26 1.765 4.04c1.356 0.89 3.371 1.08 5.028 0.52 1.656-0.55 3.351-1.63 5.031-3.03 3.351-2.8 6.551-6.79 8.531-10.06 2.258-3.73 4.805-9.01 5.985-13.81 0.59-2.41 0.44-4.86 0.11-6.81s-1.28-3.59-3.021-4.5c-0.679-0.35-1.39-0.47-2.144-0.42-0.188 0.01-0.379 0.03-0.574 0.06z"/>
  <path fill="rgb(0%, 0%, 0%)" d="m60.406 85.051l0.008 0.457 0.203-0.028c0.625 1.512 0.488 3.102 0.512 4.668l0.051-0.109v-2.441c2.984 4.269 8.043 8.191 14.414 12.238 6.844 4.334 15.011 8.824 21.254 14.114 0.402 0.35 0.871 0.69 1.261 1.03l0.625-0.44c-0.511-0.46-0.839-0.76-1.375-1.21-6.32-5.35-14.066-9.88-20.89-14.217-6.824-4.328-12.711-8.461-15.336-12.855l-0.731-1.207zm-14.062 16.729l-0.973-0.05 0.703 0.58s6.102 4.84 8.973 7.87c5.148 5.41 9.113 11.44 13.848 17.34 3.765 4.7 11.546 11.89 13.902 13.23l0.23 0.07 0.176-0.81c-4.18-2.87-9.363-8.07-13.699-13.01-4.926-5.62-8.422-11.93-13.641-17.42-2.203-2.31-6.011-5.26-7.797-6.66-0.336-0.26-0.589 0.03-0.757-0.1l-0.727-0.42z"/>
  <path fill="rgb(0%, 0%, 0%)" d="m59.18 95.156c11.636 7.144 20.16 18.054 30.39 27.074 0.157 0.15 0.43 0.13 0.567-0.03 0.14-0.15-0.778-0.74-0.934-0.88-10.176-8.97-17.851-19.64-29.68-26.879z"/>
  <path fill="rgb(0%, 0%, 0%)" d="m62.598 100.82c-0.571 0.05-1.11 0.3-1.489 0.76-0.777 0.9-0.671 2.33 0.231 3.1 0.91 0.77 2.336 0.64 3.101-0.27 0.762-0.9 0.664-2.34-0.238-3.11-0.457-0.37-1.035-0.53-1.605-0.48zm0.062 0.8c0.379-0.03 0.762 0.07 1.028 0.3 0.542 0.46 0.621 1.46 0.16 1.99-0.453 0.54-1.453 0.64-1.993 0.18-0.539-0.46-0.613-1.46-0.152-1.99 0.223-0.27 0.59-0.46 0.957-0.48z"/>
  <path fill="rgb(0%, 0%, 0%)" d="m76.414 113.31c-0.562 0.05-1.129 0.31-1.512 0.76-0.769 0.91-0.644 2.34 0.258 3.11 0.906 0.75 2.336 0.62 3.098-0.29 0.769-0.9 0.648-2.33-0.254-3.1-0.457-0.38-1.02-0.54-1.59-0.48zm0.07 0.79c0.371-0.02 0.739 0.08 1.004 0.31 0.539 0.45 0.633 1.43 0.176 1.97 0.004 0 0 0.01 0.004 0.01-0.449 0.55-1.453 0.62-1.996 0.16-0.531-0.46-0.61-1.43-0.149-1.97 0-0.01-0.003-0.01-0.003-0.02 0.222-0.26 0.589-0.42 0.964-0.46z"/>
  <path fill="rgb(0%, 0%, 0%)" d="m96.316 108.67c-0.785 0.01-1.421 0.47-1.746 0.86 1.5-0.6 2.328-0.48 3.102 0.73 0.191 0.31 0.332 0.72 0.437 1.36 0.211 1.25 0.063 3.17-0.453 5.29-1.039 4.27-3.476 9.39-5.59 12.89-1.773 2.92-4.847 6.74-7.796 9.2-1.473 1.22-2.965 2.05-3.977 2.44-1.711 0.66-2.613-0.44-2.383-2.17-0.445 0.84-0.453 2.3 0.195 2.83 0.715 0.58 1.711 0.34 2.438 0.1 1.199-0.4 2.703-1.33 4.23-2.6 3.051-2.54 6.157-6.39 7.981-9.4 2.148-3.56 4.598-8.7 5.672-13.11 0.535-2.19 0.703-4.18 0.457-5.6-0.113-0.69-0.258-1.24-0.551-1.65-0.543-0.78-1.219-1.18-2.016-1.17z"/>
  <path fill="rgb(0%, 0%, 0%)" d="m113.74 106.87l0.21-0.63c-1.71 0.72-3.25 2.82-4.79 5.36-1.51 2.45-3.62 5.57-4.2 8.04-0.04 0.09 0.15 0.17 0.1 0.27l0.03 0.15-0.04-0.05c0.01 0.02 0.01 0.05 0.02 0.07l0.04 0.42c0.01-0.02 0.01 0.01 0 0 0.84-3.1 3.23-6.05 4.72-8.5 0.83-1.41 1.7-2.61 2.54-3.49 0.56-0.58 0.56-1.02 1.08-1.3zm-8.26 17.96c1.66 8.64 7.12 19.25 13.07 23.39l0.11 0.16 0.22-0.03c2.05-0.11 5.76-0.65 9.37-1.56 3.6-0.9 7.08-2.1 8.7-3.7l0.23-0.23-1.03-0.15c-1.47 1.26-4.7 2.46-8.09 3.32-3.47 0.86-7.02 1.4-9.04 1.52-5.27-3.96-11.3-14.26-13.29-22.71l-0.26-0.02z"/>
  <path fill="rgb(0%, 0%, 0%)" d="m104.68 118.84c-1.16 1.67-1.23 5.63-1.25 8.08l-0.12 22.32c-0.01 1.91 0.15 6.05 1.68 7.27 1.76-1.47 1.63-5.5 1.57-7.27l-0.68-22.66c-0.07-2.22 0.04-6.23-1.2-7.74zm0.05 0.37c0.7 2.63 0.29 5.57 0.34 7.38l0.68 22.65c0.07 2.15 0.19 5.01-0.75 6.94-0.8-1.97-0.92-5.06-0.91-6.94l0.13-22.31c0.01-2.21-0.2-5.76 0.51-7.7z"/>
  <path fill="rgb(0%, 0%, 0%)" d="m115.52 105.79c-0.55 0.05-1.09 0.21-1.59 0.49l-0.39 0.22 0.03 0.04c-1.45 1-2.51 2.66-2.74 4.46-0.27 1.96 0.07 4.23 0.73 6.61 1.35 4.76 4.08 9.91 6.47 13.57 2.09 3.18 5.41 7.08 8.86 9.75 1.72 1.34 3.49 2.36 5.16 2.86 1.67 0.48 3.56 0.3 4.88-0.63 1.16-0.82 1.6-2.3 1.61-4.09 0-0.48-0.03-0.98-0.08-1.5l-0.76 0.29c0.04 0.41 0.06 0.81 0.05 1.19-0.02 1.65-0.43 2.85-1.28 3.45-1.09 0.79-2.4 0.86-3.93 0.41-1.52-0.45-3.23-1.43-4.9-2.73-3.35-2.6-6.65-6.43-8.7-9.55-2.34-3.59-5.06-8.72-6.37-13.35-0.66-2.32-0.94-4.51-0.71-6.3 0.24-1.8 0.99-3.18 2.46-4.02 0.53-0.3 1.11-0.42 1.73-0.4 0.64 0.03 1.32 0.2 2.03 0.5 0.35 0.15 0.71 0.33 1.08 0.55l0.65-0.54c-0.47-0.3-0.94-0.55-1.42-0.75-0.78-0.33-1.57-0.52-2.31-0.55-0.19 0-0.38 0.01-0.56 0.02z"/>
  <path fill="rgb(0%, 0%, 0%)" d="m133.54 94.652c-2.37 2.086-4.64 4.184-7.01 6.208l-0.03 0.88c2.48-2.107 4.99-4.244 7.48-6.435zm-10.03 8.618c-3.67 2.71-7.07 5.56-9.88 8.8l-0.13 0.13 0.02 0.17c0.02 1.25 0.25 2.76 0.71 4.39 1.23 4.36 3.88 9.4 6.16 12.87 1.93 2.95 5.15 6.71 8.3 9.14 1.08 0.84 2.15 1.51 3.11 1.96l0.15 0.07 0.16-0.06c4.41-1.71 8.66-3.97 12.86-6.49 0.14-0.08-0.35 0.03-0.22-0.06l-0.58-0.06-0.03-0.31c-3.97 2.37-8 4.48-12.14 6.11-0.86-0.43-1.82-1.02-2.82-1.79-3.04-2.35-6.25-6.06-8.13-8.93-2.24-3.41-4.86-8.43-6.05-12.65-0.43-1.52-0.64-2.92-0.68-4.05 2.78-3.19 5.92-5.92 9.29-8.27zm35.46 20.78c-3.81 2.65-7.61 5.25-11.44 7.68l1.27-0.14 0.03 0.27c3.39-2.19 6.76-4.5 10.13-6.84z"/>
  <path fill="rgb(0%, 0%, 0%)" d="m116.05 108.3c-0.35-0.02-0.64 0.07-0.86 0.2-0.48 0.26-0.85 0.59-1.12 1.02-0.25 0.45-0.4 0.98-0.49 1.68-0.2 1.43 0.04 3.42 0.66 5.6 1.22 4.36 3.87 9.4 6.15 12.87 1.93 2.95 5.15 6.69 8.29 9.12 1.57 1.22 3.12 2.09 4.34 2.45 0.58 0.18 1.05 0.25 1.44 0.21 0.4-0.03 0.73-0.2 1-0.4 0.08-0.06 0.13-0.12 0.18-0.2 0.06-0.1 0.12-0.19 0.17-0.36 0.1-0.3 0.19-0.76 0.19-1.45h-0.81c0 0.62-0.07 1-0.13 1.21-0.04 0.1-0.07 0.14-0.09 0.18-0.18 0.12-0.35 0.2-0.59 0.22-0.25 0.03-0.6-0.01-1.14-0.16-1.04-0.31-2.54-1.14-4.06-2.31-3.04-2.35-6.25-6.06-8.13-8.93-2.23-3.41-4.86-8.43-6.05-12.66-0.59-2.1-0.78-4.03-0.62-5.27 0.08-0.65 0.2-1.08 0.39-1.39 0.18-0.31 0.41-0.54 0.8-0.75 0.14-0.08 0.24-0.11 0.45-0.09s0.53 0.1 1.05 0.32l0.31-0.75c-0.56-0.23-0.97-0.35-1.33-0.36z"/>
  <path fill="rgb(0%, 0%, 0%)" d="m58.707 84.465l0.117 0.312c1.344 3.368-0.445 8.243-3.547 11.844-1.554 1.801-3.41 3.285-5.308 4.129-1.907 0.84-3.231 1.08-4.957 0.36-0.887 0.85 1.593 1.82 2.453 1.96 1.351 0.2 2.687 0.04 3.976-0.41 2.368-0.84 4.579-2.65 6.551-5.047 1.633-1.988 2.903-4.961 3.352-7.625 0.222-1.328 0.211-2.758-0.207-3.75-0.489-1.152-1.129-2.047-2.43-1.773zm1.012 0.922c0.394 0.086 0.859 0.675 1.023 1.234 0.246 0.852 0.266 2.098 0.059 3.359-0.418 2.497-1.672 5.411-3.184 7.243-1.914 2.316-4.058 3.977-6.207 4.797-1.367 0.53-3.668 1.08-4.722 0.11 3.48 0.12 7.488-2.552 9.476-4.825 3-3.489 4.504-8.219 3.555-11.918z"/>
  <path fill="rgb(0%, 0%, 0%)" d="m123.5 100.95c-0.31 0.62-0.77 1.66-0.74 2.47 0.03 1.65 0.62 3.65 1.47 5.81 1.73 4.29 4.63 9.18 6.99 12.64 2.06 3.01 5.22 6.82 8.34 9.65 1.55 1.41 3.08 2.6 4.49 3.29 1.42 0.71 3.09 0.67 4.15 0.08 0.5-0.28 0.91-0.71 1.08-1.3 0.18-0.59 0.17-1.32-0.02-2.26-0.03-0.2-0.26-0.37-0.46-0.32-2.71 0.5-4.76-1.23-6.54-2.84-2.76-2.51-5.8-6.17-7.66-8.9-2.22-3.24-5.28-8.35-6.73-12.07-0.73-1.86-1.11-3.51-1.12-4.5-0.01-0.45 0.14-0.93 0.36-1.32 0.2-0.38 0.49-0.65 0.68-0.72 0.28-0.11 0.31-0.6 0.02-0.726-1.15-0.793-3.41-0.774-4.31 1.016zm3.44-0.49c-0.17 0.19-0.4 0.3-0.54 0.54-0.28 0.5-0.47 1.09-0.45 1.71 0 1.18 0.43 2.86 1.17 4.78 1.51 3.84 4.57 8.94 6.81 12.22 1.91 2.79 4.97 6.49 7.8 9.05 1.71 1.55 3.9 3.34 6.77 3.02 0.09 0.66 0.13 1.23 0.03 1.55-0.13 0.41-0.35 0.64-0.72 0.85-0.7 0.4-1.77 0.26-3.06-0.38-1.31-0.66-2.8-1.77-4.33-3.16-3.04-2.77-6.16-6.56-8.19-9.52-2.34-3.41-5.22-8.3-6.91-12.5-0.84-2.1-1.39-4.05-1.43-5.52-0.02-0.74 0.07-1.33 0.3-1.79 0.72-1.11 1.59-1.24 2.75-0.85z"/>
  <path fill="rgb(0%, 0%, 0%)" d="m151.61 74.332c-2.24 1.203-4.18 3.254-6.14 5.586-3.89 4.664-7.79 10.383-13.54 12.57l-0.55 0.207 0.41 0.434c5.91 6.652 10.76 13.611 11.32 22.101l0.05 0.57 0.54-0.26c5.67-0.9 11.88 5 14.91 8.91-0.24 1.59 0.25 3.26 1.58 4.39 2.02 1.71 5.04 1.46 6.75-0.56 1.72-2.02 1.47-5.07-0.56-6.78-0.3-0.26-0.67-0.4-1-0.57 0.04-0.07 0.07-0.21 0.17-0.25 2.58-0.26 4.86-0.8 6.81-1.77l-0.25-0.35c-10.74-14.7-9.63-31.208-12.59-44.759-2.61-0.953-5.66-0.641-7.9 0.535zm6.81 0.547c3.03 14.562 3.27 31.571 12.78 43.671-2.09 0.97-3.57 1.18-4.57 1.23-0.54 0.02-0.95 0-1.35 0.15-0.4 0.14-0.72 0.53-0.83 1.04l-0.07 0.34 0.32 0.11c0.41 0.15 0.82 0.39 1.17 0.7 1.7 1.44 1.9 3.95 0.46 5.65-1.43 1.69-3.96 1.89-5.65 0.46-1.16-1-1.62-2.5-1.33-3.9l-0.05-0.21 0.03-0.09-0.12-0.14c-2.54-3.21-7.84-10.17-15.35-9.16-0.71-8.38-5.45-15.257-11.16-21.722 5.8-2.43 9.64-8.09 13.39-12.574 1.93-2.309 3.82-4.305 5.89-5.414 2.3-1.165 4.32-0.961 6.45-0.133z"/>
  <path fill="rgb(0%, 0%, 0%)" d="m135.89 93.277c5.04 6.266 8.53 12.463 9.64 18.973 6.86 2.02 11.57 5.4 14.04 10.31 0.09 0.12 0.23 0.19 0.37 0.17 0.29-0.04 0.45-0.44 0.27-0.65-0.02-0.02-0.03-0.03-0.03-0.04-0.65-3.26-7.58-9.21-14.03-10.56 0.24-1.76-4.87-15.578-10.26-18.203z"/>
  <path fill="rgb(0%, 0%, 0%)" d="m159.83 121.9c-0.09 0.02-0.17 0.08-0.22 0.15-0.47 0.56-0.8 1.19-0.97 1.84l0.7 0.48c0.12-0.65 0.41-1.28 0.88-1.82 0.21-0.25-0.06-0.71-0.39-0.65z"/>
  <path fill="rgb(0%, 0%, 0%)" d="m163.1 123.78c-0.32 0.02-0.63 0.18-0.85 0.45-0.44 0.51-0.39 1.28 0.13 1.72 0.52 0.43 1.31 0.39 1.75-0.13s0.37-1.31-0.15-1.75c-0.26-0.21-0.57-0.32-0.88-0.29zm-0.26 0.95c0.14-0.15 0.49-0.2 0.64-0.07 0.15 0.14 0.18 0.49 0.05 0.64s-0.48 0.18-0.64 0.06c-0.14-0.13-0.17-0.47-0.05-0.63z"/>
  <path fill="rgb(11%, 58%, 27%)" d="m104.01 157.46c-16.955 0.17-31.967 11.25-46.694 22.56-5.808-2.94-11.816-4.76-18.109-4.76-7.797 0-15.141 2.83-22.234 7.05 16.683 31.25 49.394 52.49 87.027 52.49 36.79 0 68.88-20.3 85.88-50.41-5.29-2.46-10.75-4-16.45-4-5.84 0-14.22 2.72-19.64 5.3-10.52-15.54-27.93-28.46-49.79-28.23z"/>
  <path fill="rgb(0%, 0%, 0%)" d="m104.01 157.14c-8.721 0.05-16.842 2.94-24.619 7.2-7.621 4.16-14.953 9.66-22.184 15.21-5.719-2.82-11.684-4.61-18-4.61-5.965 0-11.633 1.59-17.055 4.13-1.816 0.85-3.601 1.82-5.371 2.88 0.125 0.23 0.246 0.48 0.375 0.71 1.903-1.15 3.821-2.2 5.758-3.11 5.301-2.49 10.707-3.96 16.293-3.96 6.246 0 12.254 1.85 18.145 4.88 5.894 3.03 11.625 7.23 17.273 11.75-4.52-4.73-11.457-9.56-16.547-12.24 7.254-5.57 14.563-11.06 22.113-15.19 7.672-4.19 15.551-6.96 23.819-7.01 16.16-0.12 28.65 6.79 38.01 15.33 7.65 7 13.15 15.07 16.83 21.12-1.52-3.44-3.31-6.96-4.26-8.26 6.11-3.24 12.36-5.26 18.84-5.26 5.59 0 11 1.49 16.29 3.98 0.13-0.23 0.25-0.44 0.37-0.67-5.3-2.43-10.84-3.95-16.66-3.95-6.8 0-13.19 2.07-19.31 5.27-3.06-4.13-6.71-8.51-11.13-12.55-9.44-8.63-22.21-15.77-38.98-15.65z"/>
  <path fill-opacity=".39216" fill="rgb(0%, 0%, 0%)" d="m106.05 157.47c4.99 6.13 11.22 11.82 10.47 19.96 21.08 4.59 32.25 8.84 42.77 17.46l-4.08-7.16c-0.23 0.1-1.2-2.14-1.42-2.04-2.67-3.96-5.81-7.73-9.34-11.17l-13.79-10.29c-7.28-3.99-15.55-6.51-24.61-6.76zm-66.843 17.79c-2.672 0-5.281 0.34-7.855 0.94 10.253 3.33 11.894 10.32 16.691 15.97 15.344 1.67 24.207 7.31 34.98 11.78-4.793-6.12-7.011-12.22-16.543-18.34-2.878-2.3-6.562-4.34-10.582-6.26-0.543-0.26-1.121-0.5-1.671-0.76-4.848-2.08-9.832-3.33-15.02-3.33zm139.13 5.52c4.19 3.75 6.75 6.3 8.43 8.76 1.09-1.7 2.14-3.42 3.13-5.18l-0.03-0.02c-3.76-1.74-7.58-2.98-11.53-3.56z"/>
  <path d="m5.1992 5.1992v129.86c0 55.08 44.235 99.74 98.801 99.74 54.57 0 98.8-44.65 98.8-99.74v-129.86z" stroke="rgb(0%, 0%, 0%)" stroke-width="2.4" fill="none"/>
 </g>
</svg>
